<?xml version="1.0" standalone="no"?>
<!DOCTYPE svg PUBLIC "-//W3C//DTD SVG 20010904//EN"
 "http://www.w3.org/TR/2001/REC-SVG-20010904/DTD/svg10.dtd">
<svg version="1.0" xmlns="http://www.w3.org/2000/svg"
 width="512.000000pt" height="512.000000pt" viewBox="0 0 512.000000 512.000000"
 preserveAspectRatio="xMidYMid meet">

<g transform="translate(0.000000,512.000000) scale(0.100000,-0.100000)"
fill="#000000" stroke="none">
<path d="M1926 3724 c-10 -27 -7 -99 6 -112 17 -17 1239 -17 1256 0 7 7 12 31
12 54 0 81 61 74 -640 74 -563 0 -628 -2 -634 -16z"/>
<path d="M2095 3173 c-142 -30 -236 -128 -252 -260 -7 -61 11 -144 42 -193 92
-146 309 -184 453 -80 140 101 155 326 30 449 -67 66 -186 103 -273 84z m131
-142 c121 -55 122 -244 2 -307 -36 -19 -122 -18 -164 2 -49 23 -84 87 -84 153
0 62 18 101 62 134 54 41 119 47 184 18z"/>
<path d="M1079 3163 c-14 -4 -230 -520 -229 -550 0 -9 20 -13 65 -13 l66 0 19
45 20 46 112 -3 113 -3 19 -42 19 -43 64 0 c49 0 63 3 63 15 0 8 -48 134 -106
279 -112 282 -109 277 -179 275 -16 -1 -37 -3 -46 -6z m90 -260 c17 -43 31
-84 31 -90 0 -9 -21 -13 -70 -13 -38 0 -70 4 -70 9 0 4 9 30 19 57 10 27 25
64 31 82 7 17 16 32 20 32 4 0 22 -35 39 -77z"/>
<path d="M265 3138 c-3 -13 -4 -140 -3 -283 l3 -260 65 0 65 0 3 93 3 92 95 0
c90 0 95 1 105 24 7 14 9 40 5 60 l-7 35 -97 3 -97 3 0 65 0 65 105 3 c113 3
120 6 120 59 0 65 5 63 -186 63 -172 0 -174 0 -179 -22z"/>
<path d="M2732 2878 l3 -283 60 0 60 0 3 158 c1 86 6 157 11 157 5 0 35 -36
68 -81 32 -44 84 -117 116 -160 l58 -80 52 3 52 3 3 283 2 283 -62 -3 -63 -3
-3 -152 c-2 -113 -6 -153 -15 -153 -6 1 -52 58 -102 127 -136 191 -128 183
-191 183 l-54 0 2 -282z"/>
<path d="M3860 3149 c-153 -31 -191 -213 -59 -281 20 -10 67 -28 105 -38 80
-23 109 -47 101 -82 -7 -26 -43 -48 -78 -48 -32 0 -79 29 -89 55 -9 22 -15 25
-65 25 -52 0 -55 -1 -55 -25 0 -57 50 -115 119 -140 155 -54 321 40 297 170
-13 68 -79 118 -193 145 -92 21 -130 70 -81 104 35 25 94 20 123 -9 14 -13 25
-29 25 -35 0 -6 23 -10 55 -10 l55 0 0 32 c0 90 -136 162 -260 137z"/>
<path d="M4542 3123 c-34 -63 -200 -499 -193 -506 4 -4 32 -7 62 -5 53 3 54 4
73 46 l19 42 104 0 103 0 18 -37 c9 -21 22 -41 27 -45 18 -14 105 -9 111 6 3
7 -40 125 -94 262 l-100 249 -60 3 c-50 2 -62 0 -70 -15z m102 -228 c37 -93
37 -95 -33 -95 -33 0 -62 4 -65 9 -8 12 54 162 64 156 4 -3 20 -34 34 -70z"/>
<path d="M117 2233 c-10 -9 -8 -105 1 -121 7 -10 140 -12 633 -10 l624 3 3 68
3 67 -629 0 c-346 0 -632 -3 -635 -7z"/>
<path d="M3657 2233 c-10 -9 -8 -105 1 -121 7 -10 140 -12 633 -10 l624 3 0
65 0 65 -626 3 c-344 1 -629 -1 -632 -5z"/>
</g>
</svg>
